<?xml version="1.0" encoding="UTF-8"?>
<svg version="1.1" xmlns="http://www.w3.org/2000/svg" xmlns:xlink="http://www.w3.org/1999/xlink">
<defs>

</defs>
<symbol id="i-explore" xmlns="http://www.w3.org/2000/svg" viewBox="0 0 24 24"><path d="M0 0h24v24H0z" fill="none"/><path d="M12 10.9c-.61 0-1.1.49-1.1 1.1s.49 1.1 1.1 1.1c.61 0 1.1-.49 1.1-1.1s-.49-1.1-1.1-1.1zM12 2C6.48 2 2 6.48 2 12s4.48 10 10 10 10-4.48 10-10S17.52 2 12 2zm2.19 12.19L6 18l3.81-8.19L18 6l-3.81 8.19z"/></symbol>
<symbol id="i-explore-outlined" xmlns="http://www.w3.org/2000/svg" viewBox="0 0 24 24"><path d="M0 0h24v24H0V0z" fill="none"/><path d="M12 2C6.48 2 2 6.48 2 12s4.48 10 10 10 10-4.48 10-10S17.52 2 12 2zm0 18c-4.41 0-8-3.59-8-8s3.59-8 8-8 8 3.59 8 8-3.59 8-8 8zm-5.5-2.5l7.51-3.49L17.5 6.5 9.99 9.99 6.5 17.5zm5.5-6.6c.61 0 1.1.49 1.1 1.1s-.49 1.1-1.1 1.1-1.1-.49-1.1-1.1.49-1.1 1.1-1.1z"/></symbol>
<symbol id="i-home-outlined" xmlns="http://www.w3.org/2000/svg" viewBox="0 0 24 24"><path d="M0 0h24v24H0V0z" fill="none"/><path d="M12 5.69l5 4.5V18h-2v-6H9v6H7v-7.81l5-4.5M12 3L2 12h3v8h6v-6h2v6h6v-8h3L12 3z"/></symbol>
<symbol id="i-insert-chart-outlined" xmlns="http://www.w3.org/2000/svg" viewBox="0 0 24 24"><path d="M0 0h24v24H0z" fill="none"/><path d="M9 17H7v-7h2v7zm4 0h-2V7h2v10zm4 0h-2v-4h2v4zm2.5 2.1h-15V5h15v14.1zm0-16.1h-15c-1.1 0-2 .9-2 2v14c0 1.1.9 2 2 2h15c1.1 0 2-.9 2-2V5c0-1.1-.9-2-2-2z"/></symbol>
<symbol id="i-more-vert" xmlns="http://www.w3.org/2000/svg" viewBox="0 0 24 24"><path d="M0 0h24v24H0z" fill="none"/><path d="M12 8c1.1 0 2-.9 2-2s-.9-2-2-2-2 .9-2 2 .9 2 2 2zm0 2c-1.1 0-2 .9-2 2s.9 2 2 2 2-.9 2-2-.9-2-2-2zm0 6c-1.1 0-2 .9-2 2s.9 2 2 2 2-.9 2-2-.9-2-2-2z"/></symbol>
<symbol id="i-play-arrow" xmlns="http://www.w3.org/2000/svg" viewBox="0 0 24 24"><path d="M5.5 2.1v20.1l15.8-10L5.5 2.1z"/><path d="M0 0h24v24H0V0z" fill="none"/></symbol>
<symbol id="i-playlist-play" xmlns="http://www.w3.org/2000/svg" viewBox="0 0 24 24"><path d="M0 0h24v24H0V0z" fill="none"/><path d="M4 10h12v2H4zm0-4h12v2H4zm0 8h8v2H4zm10 0v6l5-3z"/></symbol>
<symbol id="i-thumb-down" xmlns="http://www.w3.org/2000/svg" viewBox="0 0 24 24"><path d="M0 0h24v24H0z" fill="none"/><path d="M15 3H6c-.83 0-1.54.5-1.84 1.22l-3.02 7.05c-.09.23-.14.47-.14.73v2c0 1.1.9 2 2 2h6.31l-.95 4.57-.03.32c0 .41.17.79.44 1.06L9.83 23l6.59-6.59c.36-.36.58-.86.58-1.41V5c0-1.1-.9-2-2-2zm4 0v12h4V3h-4z"/></symbol>
<symbol id="i-thumb-down-outline" xmlns="http://www.w3.org/2000/svg" viewBox="0 0 24 24"><path d="M0 0h24v24H0V0zm0 0h24v24H0V0z" fill="none"/><path d="M15 3H6c-.83 0-1.54.5-1.84 1.22l-3.02 7.05c-.09.23-.14.47-.14.73v2c0 1.1.9 2 2 2h6.31l-.95 4.57-.03.32c0 .41.17.79.44 1.06L9.83 23l6.59-6.59c.36-.36.58-.86.58-1.41V5c0-1.1-.9-2-2-2zm0 12l-4.34 4.34L12 14H3v-2l3-7h9v10zm4-12h4v12h-4z"/></symbol>
<symbol id="i-thumb-up" xmlns="http://www.w3.org/2000/svg" viewBox="0 0 24 24"><path d="M0 0h24v24H0V0z" fill="none"/><path d="M1 21h4V9H1v12zm22-11c0-1.1-.9-2-2-2h-6.31l.95-4.57.03-.32c0-.41-.17-.79-.44-1.06L14.17 1 7.59 7.59C7.22 7.95 7 8.45 7 9v10c0 1.1.9 2 2 2h9c.83 0 1.54-.5 1.84-1.22l3.02-7.05c.09-.23.14-.47.14-.73v-2z"/></symbol>
<symbol id="i-thumb-up-outline" xmlns="http://www.w3.org/2000/svg" viewBox="0 0 24 24"><path d="M0 0h24v24H0V0zm0 0h24v24H0V0z" fill="none"/><path d="M9 21h9c.83 0 1.54-.5 1.84-1.22l3.02-7.05c.09-.23.14-.47.14-.73v-2c0-1.1-.9-2-2-2h-6.31l.95-4.57.03-.32c0-.41-.17-.79-.44-1.06L14.17 1 7.58 7.59C7.22 7.95 7 8.45 7 9v10c0 1.1.9 2 2 2zM9 9l4.34-4.34L12 10h9v2l-3 7H9V9zM1 9h4v12H1z"/></symbol>
<symbol id="i-volume-off" xmlns="http://www.w3.org/2000/svg" viewBox="0 0 24 24"><path d="M18 12c0-2.4-1.4-4.4-3.3-5.4v2.9l3.3 3.3V12zm3.3 0c0 1.3-.3 2.4-.7 3.5l2 2C23.5 15.9 24 14 24 12 24 6.3 20 1.5 14.7.3V3c3.8 1.2 6.6 4.8 6.6 9zM1.7 0L0 1.7 6.3 8H0v8h5.3l6.7 6.7v-9l5.7 5.7c-.9.7-1.9 1.2-3 1.6v2.7c1.8-.4 3.5-1.3 4.9-2.4l2.7 2.7 1.7-1.7-12-12L1.7 0zM12 1.3L9.2 4.1 12 6.9V1.3z"/><path d="M0 0h24v24H0V0z" fill="none"/></symbol>
<symbol id="i-volume-up" xmlns="http://www.w3.org/2000/svg" viewBox="0 0 24 24"><path d="M0 8v8h5.3l6.7 6.7V1.3L5.4 8H0zm18 4c0-2.4-1.4-4.4-3.3-5.4v10.7c1.9-.9 3.3-3 3.3-5.3zM14.7.3V3c3.8 1.1 6.7 4.7 6.7 8.9s-2.8 7.8-6.7 8.9v2.7C20 22.5 24 17.7 24 12S20 1.5 14.7.3z"/><path d="M0 0h24v24H0V0z" fill="none"/></symbol>
</svg>