<svg xmlns="http://www.w3.org/2000/svg" xmlns:xlink="http://www.w3.org/1999/xlink"><defs><symbol viewBox="0 0 24 24" id="open_in_new"><path d="M0 0h24v24H0z" fill="none" /><path d="M19 19H5V5h7V3H5a2 2 0 00-2 2v14a2 2 0 002 2h14c1.1 0 2-.9 2-2v-7h-2v7zM14 3v2h3.59l-9.83 9.83 1.41 1.41L19 6.41V10h2V3h-7z" /></symbol><symbol viewBox="0 0 24 24" id="pause_circle_filled"><path d="M0 0h24v24H0z" fill="none" /><path d="M12 2C6.48 2 2 6.48 2 12s4.48 10 10 10 10-4.48 10-10S17.52 2 12 2zm-1 14H9V8h2v8zm4 0h-2V8h2v8z" /></symbol><symbol viewBox="0 0 24 24" id="person_outline"><path d="M12 5.9a2.1 2.1 0 110 4.2 2.1 2.1 0 010-4.2m0 9c2.97 0 6.1 1.46 6.1 2.1v1.1H5.9V17c0-.64 3.13-2.1 6.1-2.1M12 4C9.79 4 8 5.79 8 8s1.79 4 4 4 4-1.79 4-4-1.79-4-4-4zm0 9c-2.67 0-8 1.34-8 4v3h16v-3c0-2.66-5.33-4-8-4z" /><path d="M0 0h24v24H0z" fill="none" /></symbol><symbol viewBox="0 0 24 24" id="play_circle_filled"><path d="M0 0h24v24H0z" fill="none" /><path d="M12 2C6.48 2 2 6.48 2 12s4.48 10 10 10 10-4.48 10-10S17.52 2 12 2zm-2 14.5v-9l6 4.5-6 4.5z" /></symbol><symbol viewBox="0 0 24 24" id="queue_music"><path d="M0 0h24v24H0z" fill="none" /><path d="M15 6H3v2h12V6zm0 4H3v2h12v-2zM3 16h8v-2H3v2zM17 6v8.18c-.31-.11-.65-.18-1-.18-1.66 0-3 1.34-3 3s1.34 3 3 3 3-1.34 3-3V8h3V6h-5z" /></symbol><symbol viewBox="0 0 24 24" id="volume_down"><path d="M18.5 12A4.5 4.5 0 0016 7.97v8.05c1.48-.73 2.5-2.25 2.5-4.02zM5 9v6h4l5 5V4L9 9H5z" /><path d="M0 0h24v24H0z" fill="none" /></symbol><symbol viewBox="0 0 24 24" id="volume_mute"><path d="M7 9v6h4l5 5V4l-5 5H7z" /><path d="M0 0h24v24H0z" fill="none" /></symbol><symbol viewBox="0 0 24 24" id="volume_off"><path d="M16.5 12A4.5 4.5 0 0014 7.97v2.21l2.45 2.45c.03-.2.05-.41.05-.63zm2.5 0c0 .94-.2 1.82-.54 2.64l1.51 1.51A8.796 8.796 0 0021 12c0-4.28-2.99-7.86-7-8.77v2.06c2.89.86 5 3.54 5 6.71zM4.27 3L3 4.27 7.73 9H3v6h4l5 5v-6.73l4.25 4.25c-.67.52-1.42.93-2.25 1.18v2.06a8.99 8.99 0 003.69-1.81L19.73 21 21 19.73l-9-9L4.27 3zM12 4L9.91 6.09 12 8.18V4z" /><path d="M0 0h24v24H0z" fill="none" /></symbol><symbol viewBox="0 0 24 24" id="volume_up"><path d="M3 9v6h4l5 5V4L7 9H3zm13.5 3A4.5 4.5 0 0014 7.97v8.05c1.48-.73 2.5-2.25 2.5-4.02zM14 3.23v2.06c2.89.86 5 3.54 5 6.71s-2.11 5.85-5 6.71v2.06c4.01-.91 7-4.49 7-8.77s-2.99-7.86-7-8.77z" /><path d="M0 0h24v24H0z" fill="none" /></symbol></defs></svg>